<?xml version="1.0" encoding="iso-8859-1"?>
<!-- Generator: Adobe Illustrator 19.0.0, SVG Export Plug-In . SVG Version: 6.00 Build 0)  -->
<svg version="1.1" id="Layer_1" xmlns="http://www.w3.org/2000/svg" xmlns:xlink="http://www.w3.org/1999/xlink" x="0px" y="0px"
	viewBox="0 0 512 512" style="enable-background:new 0 0 512 512;" xml:space="preserve">
	<g>
		<g>
			<g>
				<path d="M332.8,460.8h-25.6v-42.667c0-4.71-3.823-8.533-8.533-8.533s-8.533,3.823-8.533,8.533v51.2
					c0,4.71,3.823,8.533,8.533,8.533H332.8c9.583,0,19.584,7.799,23.68,17.067H155.52c4.096-9.267,14.097-17.067,23.68-17.067h85.333
					c4.71,0,8.533-3.823,8.533-8.533s-3.823-8.533-8.533-8.533h-42.667v-42.667c0-4.71-3.823-8.533-8.533-8.533
					c-4.71,0-8.533,3.823-8.533,8.533V460.8h-25.6c-21.931,0-42.667,20.736-42.667,42.667c0,4.71,3.823,8.533,8.533,8.533h221.867
					c4.71,0,8.533-3.823,8.533-8.533C375.467,481.536,354.731,460.8,332.8,460.8z"/>
					<path d="M384.572,272.307c1.143,0.521,2.338,0.759,3.516,0.759c3.243,0,6.349-1.86,7.782-5.009
						c9.105-20.122,13.73-41.404,13.73-63.258c0-84.693-68.907-153.6-153.6-153.6s-153.6,68.907-153.6,153.6
						c0,21.854,4.625,43.136,13.73,63.258c1.954,4.292,7.014,6.195,11.298,4.25c4.292-1.946,6.195-7.006,4.258-11.298
						c-8.115-17.894-12.22-36.804-12.22-56.209c0-75.281,61.252-136.533,136.533-136.533S392.533,129.519,392.533,204.8
						c0,19.405-4.104,38.315-12.22,56.209C378.377,265.301,380.279,270.362,384.572,272.307z"/>
						<path d="M469.333,0H42.667C20.736,0,0,20.736,0,42.667v221.867c0,4.71,3.823,8.533,8.533,8.533s8.533-3.823,8.533-8.533V42.667
							c0-12.442,13.158-25.6,25.6-25.6h426.667c12.442,0,25.6,13.158,25.6,25.6v307.2c0,12.442-13.158,25.6-25.6,25.6H42.667
							c-12.442,0-25.6-13.158-25.6-25.6V307.2h452.267c4.71,0,8.533-3.823,8.533-8.533s-3.823-8.533-8.533-8.533H8.533
							c-4.71,0-8.533,3.823-8.533,8.533v51.2c0,21.931,20.736,42.667,42.667,42.667h426.667c21.931,0,42.667-20.736,42.667-42.667
							v-307.2C512,20.736,491.264,0,469.333,0z"/>
							<path d="M344.781,271.718c1.425,0.913,3.021,1.348,4.591,1.348c2.816,0,5.564-1.391,7.194-3.925
								c12.365-19.294,18.901-41.54,18.901-64.341c0-65.877-53.589-119.467-119.467-119.467S136.533,138.923,136.533,204.8
								c0,22.801,6.537,45.047,18.901,64.341c2.534,3.959,7.808,5.129,11.785,2.577c3.968-2.543,5.128-7.825,2.577-11.793
								c-10.59-16.538-16.196-35.593-16.196-55.125c0-56.465,45.935-102.4,102.4-102.4s102.4,45.935,102.4,102.4
								c0,19.533-5.606,38.588-16.196,55.125C339.652,263.893,340.813,269.175,344.781,271.718z"/>
								<path d="M238.933,341.333c0,9.412,7.654,17.067,17.067,17.067c9.412,0,17.067-7.654,17.067-17.067
									c0-9.412-7.654-17.067-17.067-17.067C246.588,324.267,238.933,331.921,238.933,341.333z"/>
									<path d="M256,162.133c9.412,0,17.067,7.654,17.067,17.067c0,4.71,3.823,8.533,8.533,8.533s8.533-3.823,8.533-8.533
										c0-15.855-10.923-29.107-25.6-32.922v-1.212c0-4.71-3.823-8.533-8.533-8.533s-8.533,3.823-8.533,8.533v1.212
										c-14.677,3.814-25.6,17.067-25.6,32.922c0,18.825,15.309,34.133,34.133,34.133c9.412,0,17.067,7.654,17.067,17.067
										c0,9.412-7.654,17.067-17.067,17.067c-9.412,0-17.067-7.654-17.067-17.067c0-4.71-3.823-8.533-8.533-8.533
										s-8.533,3.823-8.533,8.533c0,15.855,10.923,29.107,25.6,32.922v1.212c0,4.71,3.823,8.533,8.533,8.533s8.533-3.823,8.533-8.533
										v-1.212c14.677-3.814,25.6-17.067,25.6-32.922c0-18.825-15.309-34.133-34.133-34.133c-9.412,0-17.067-7.654-17.067-17.067
										S246.588,162.133,256,162.133z"/>
									</g>
								</g>
							</g>
							<g>
							</g>
							<g>
							</g>
							<g>
							</g>
							<g>
							</g>
							<g>
							</g>
							<g>
							</g>
							<g>
							</g>
							<g>
							</g>
							<g>
							</g>
							<g>
							</g>
							<g>
							</g>
							<g>
							</g>
							<g>
							</g>
							<g>
							</g>
							<g>
							</g>
						</svg>
